<svg width="60" height="60" viewBox="0 0 60 60" fill="none" xmlns="http://www.w3.org/2000/svg">
<rect width="60" height="60" rx="30" fill="#FEFBEF"/>
<path d="M41.7647 18.7321C40.5143 18.7321 39.4912 19.7552 39.4912 21.0057C39.4912 21.3467 39.5669 21.6498 39.6806 21.9151L35.0957 25.5527C33.8073 24.1886 32.0264 23.3171 30.0181 23.3171C28.4267 23.3171 26.9868 23.8476 25.85 24.7191L22.1366 20.551C22.4776 20.0584 22.705 19.49 22.705 18.8458C22.705 17.2922 21.4166 16.0039 19.863 16.0039C18.3095 16.0039 17.0211 17.2922 17.0211 18.8458C17.0211 20.3994 18.3095 21.6877 19.863 21.6877C20.3935 21.6877 20.8861 21.5362 21.3029 21.3088L25.0164 25.4769C23.8417 26.7274 23.0839 28.4325 23.0839 30.2892C23.0839 31.9565 23.6901 33.5101 24.6753 34.7226L22.4018 36.9582C21.7198 36.4278 20.8861 36.1246 19.9767 36.1246C17.779 36.1246 15.998 37.9055 15.998 40.1033C15.998 42.301 17.779 44.082 19.9767 44.082C22.1745 44.082 23.9554 42.301 23.9554 40.1033C23.9554 39.2318 23.6523 38.436 23.1976 37.754L25.4711 35.5183C26.6836 36.6172 28.2751 37.2614 30.0181 37.2614C31.6096 37.2614 33.0495 36.7309 34.2242 35.8215L37.786 39.7623C37.5966 40.0654 37.4829 40.4443 37.4829 40.8232C37.4829 41.9221 38.3923 42.8315 39.4912 42.8315C40.59 42.8315 41.4994 41.9221 41.4994 40.8232C41.4994 39.7244 40.6279 38.815 39.4912 38.815C39.188 38.815 38.8849 38.8907 38.6196 39.0044L35.0578 35.0636C36.2324 33.8132 36.9524 32.1459 36.9524 30.2892C36.9524 28.8493 36.5356 27.5231 35.7777 26.4242L40.3627 22.8245C40.7416 23.1276 41.2342 23.2792 41.7268 23.2792C42.9772 23.2792 44.0003 22.2561 44.0003 21.0057C44.0003 19.7552 43.053 18.7321 41.7647 18.7321Z" fill="#FFC000"/>
<path d="M27.8659 29.0482H29.8268C29.77 28.8272 29.6658 28.6503 29.5142 28.5177C29.369 28.3851 29.1606 28.3188 28.889 28.3188H27.8564V27.542H32.3467L32.2235 28.3188H30.9825C31.1089 28.5209 31.191 28.764 31.2288 29.0482H32.1098L31.9867 29.825H31.2288C31.1531 30.3176 30.9447 30.6965 30.6036 30.9618C30.2626 31.227 29.8584 31.3944 29.3911 31.4638L31.2952 34.23H29.7605L27.8564 31.5017L27.8659 30.5828H28.8795C29.17 30.5828 29.3942 30.5165 29.5521 30.3839C29.71 30.2513 29.811 30.065 29.8553 29.825H27.8659V29.0482Z" fill="#FEFBEF"/>
</svg>
